<svg width="379" height="417" viewBox="0 0 379 417" fill="none" xmlns="http://www.w3.org/2000/svg">
<path d="M232.286 416.105C196.473 416.105 169.002 408.983 149.875 394.739C130.747 380.088 118.742 357.501 113.858 326.978H94.9341L103.48 256.776H115.079C115.079 271.427 117.724 282.822 123.015 290.961C128.713 298.694 137.055 303.984 148.044 306.833C159.439 309.682 173.683 311.106 190.775 311.106C208.682 311.106 222.722 309.479 232.897 306.223C243.478 302.56 251.007 296.659 255.483 288.52C259.96 280.38 262.198 269.596 262.198 256.166C262.198 242.329 259.96 231.544 255.483 223.812C251.007 215.672 243.478 209.771 232.897 206.108C222.722 202.446 208.682 200.614 190.775 200.614C165.136 200.614 146.009 203.87 133.393 210.382C121.184 216.893 115.079 230.934 115.079 252.503H103.48V181.69H121.184C125.66 156.051 137.055 135.499 155.369 120.034C173.683 104.163 200.95 96.2267 237.17 96.2267C267.286 96.2267 292.721 102.738 313.477 115.761C334.639 128.377 350.714 146.691 361.702 170.702C372.691 194.306 378.185 222.794 378.185 256.166C378.185 289.13 372.487 317.618 361.092 341.629C350.104 365.64 333.622 384.157 311.645 397.18C290.076 409.796 263.623 416.105 232.286 416.105ZM107.754 410H0.313721V0.995941H115.079V315.38L107.754 323.316V410Z" fill="white"/>
</svg>
