<svg width="32" height="32" viewBox="0 0 32 32" fill="none" xmlns="http://www.w3.org/2000/svg">
<g clip-path="url(#clip0_9_177)">
<path d="M26.5 0H5.5C2.46243 0 0 2.46243 0 5.5V26.5C0 29.5376 2.46243 32 5.5 32H26.5C29.5376 32 32 29.5376 32 26.5V5.5C32 2.46243 29.5376 0 26.5 0Z" fill="white"/>
<path d="M9.98609 24.1674H7.11133V7.45374H10.2312V13.1364H10.2758C10.7363 12.5273 11.3158 11.9999 12.014 11.5542C12.7123 11.1085 13.574 10.8856 14.5991 10.8856C15.4905 10.8856 16.3299 11.0565 17.1173 11.3982C17.9047 11.7399 18.5881 12.2153 19.1675 12.8244C19.7617 13.4335 20.2297 14.1541 20.5714 14.986C20.9131 15.818 21.084 16.7243 21.084 17.7048C21.084 18.6853 20.9131 19.5916 20.5714 20.4236C20.2297 21.2555 19.7617 21.9835 19.1675 22.6075C18.5881 23.2166 17.9047 23.692 17.1173 24.0337C16.3299 24.3754 15.4905 24.5463 14.5991 24.5463C14.0642 24.5463 13.5665 24.4794 13.106 24.3457C12.6454 24.212 12.222 24.0337 11.8357 23.8109C11.4643 23.5732 11.13 23.2983 10.8329 22.9863C10.5358 22.6744 10.2684 22.3475 10.0307 22.0058H9.98609V24.1674ZM10.2312 17.7048C10.2312 18.2248 10.3278 18.7225 10.5209 19.1979C10.7289 19.6585 11.0038 20.0596 11.3455 20.4013C11.6872 20.743 12.0883 21.0178 12.5489 21.2258C13.0094 21.419 13.4997 21.5155 14.0197 21.5155C14.5545 21.5155 15.0522 21.419 15.5127 21.2258C15.9733 21.0178 16.3744 20.743 16.7161 20.4013C17.0578 20.0596 17.3253 19.6585 17.5184 19.1979C17.7115 18.7225 17.8081 18.2248 17.8081 17.7048C17.8081 17.1848 17.7115 16.6946 17.5184 16.234C17.3253 15.7734 17.0578 15.3723 16.7161 15.0306C16.3744 14.6889 15.9733 14.4215 15.5127 14.2284C15.0522 14.0204 14.5545 13.9164 14.0197 13.9164C13.4997 13.9164 13.0094 14.0204 12.5489 14.2284C12.0883 14.4215 11.6872 14.6889 11.3455 15.0306C11.0038 15.3723 10.7289 15.7734 10.5209 16.234C10.3278 16.6946 10.2312 17.1848 10.2312 17.7048Z" fill="black"/>
<path d="M23.084 24.5463C22.5299 24.5463 22.0537 24.3558 21.6554 23.9748C21.2745 23.5766 21.084 23.1004 21.084 22.5463C21.084 21.9922 21.2745 21.5246 21.6554 21.1437C22.0537 20.7454 22.5299 20.5463 23.084 20.5463C23.6381 20.5463 24.1056 20.7454 24.4866 21.1437C24.8849 21.5246 25.084 21.9922 25.084 22.5463C25.084 23.1004 24.8849 23.5766 24.4866 23.9748C24.1056 24.3558 23.6381 24.5463 23.084 24.5463Z" fill="black"/>
</g>
<defs>
<clipPath id="clip0_9_177">
<rect width="32" height="32" fill="white"/>
</clipPath>
</defs>
</svg>
