<svg width="32" height="32" viewBox="0 0 32 32" fill="none" xmlns="http://www.w3.org/2000/svg">
<g clip-path="url(#clip0_9_197)">
<path d="M26.5 0H5.5C2.46243 0 0 2.46243 0 5.5V26.5C0 29.5376 2.46243 32 5.5 32H26.5C29.5376 32 32 29.5376 32 26.5V5.5C32 2.46243 29.5376 0 26.5 0Z" fill="white"/>
<path d="M9.98413 24.1674H7.10938V7.45374H10.2293V13.1364H10.2738C10.7344 12.5273 11.3138 11.9999 12.0121 11.5542C12.7103 11.1085 13.572 10.8856 14.5971 10.8856C15.4885 10.8856 16.3279 11.0565 17.1153 11.3982C17.9027 11.7399 18.5861 12.2153 19.1655 12.8244C19.7598 13.4335 20.2278 14.1541 20.5695 14.986C20.9112 15.818 21.082 16.7243 21.082 17.7048C21.082 18.6853 20.9112 19.5916 20.5695 20.4236C20.2278 21.2555 19.7598 21.9835 19.1655 22.6075C18.5861 23.2166 17.9027 23.692 17.1153 24.0337C16.3279 24.3754 15.4885 24.5463 14.5971 24.5463C14.0623 24.5463 13.5646 24.4794 13.104 24.3457C12.6435 24.212 12.2201 24.0337 11.8338 23.8109C11.4624 23.5732 11.1281 23.2983 10.831 22.9863C10.5338 22.6744 10.2664 22.3475 10.0287 22.0058H9.98413V24.1674ZM10.2293 17.7048C10.2293 18.2248 10.3258 18.7225 10.519 19.1979C10.727 19.6585 11.0018 20.0596 11.3435 20.4013C11.6852 20.743 12.0863 21.0178 12.5469 21.2258C13.0075 21.419 13.4977 21.5155 14.0177 21.5155C14.5525 21.5155 15.0502 21.419 15.5108 21.2258C15.9714 21.0178 16.3725 20.743 16.7142 20.4013C17.0559 20.0596 17.3233 19.6585 17.5164 19.1979C17.7096 18.7225 17.8061 18.2248 17.8061 17.7048C17.8061 17.1848 17.7096 16.6946 17.5164 16.234C17.3233 15.7734 17.0559 15.3723 16.7142 15.0306C16.3725 14.6889 15.9714 14.4215 15.5108 14.2284C15.0502 14.0204 14.5525 13.9164 14.0177 13.9164C13.4977 13.9164 13.0075 14.0204 12.5469 14.2284C12.0863 14.4215 11.6852 14.6889 11.3435 15.0306C11.0018 15.3723 10.727 15.7734 10.519 16.234C10.3258 16.6946 10.2293 17.1848 10.2293 17.7048Z" fill="black"/>
<path d="M23.082 24.5463C22.5279 24.5463 22.0517 24.3558 21.6535 23.9748C21.2725 23.5766 21.082 23.1004 21.082 22.5463C21.082 21.9922 21.2725 21.5246 21.6535 21.1437C22.0517 20.7454 22.5279 20.5463 23.082 20.5463C23.6361 20.5463 24.1037 20.7454 24.4846 21.1437C24.8829 21.5246 25.082 21.9922 25.082 22.5463C25.082 23.1004 24.8829 23.5766 24.4846 23.9748C24.1037 24.3558 23.6361 24.5463 23.082 24.5463Z" fill="black"/>
</g>
<defs>
<clipPath id="clip0_9_197">
<rect width="32" height="32" fill="white"/>
</clipPath>
</defs>
</svg>
